<svg width="38" height="38" viewBox="0 0 38 38" fill="none" xmlns="http://www.w3.org/2000/svg">
<path d="M5.5679 18.6914C3.88848 18.6914 2.5144 17.3173 2.5144 15.6379V8.00412C2.5144 6.3247 3.88848 4.95062 5.5679 4.95062H17.7819C19.4613 4.95062 20.8354 6.3247 20.8354 8.00412V15.6379C20.8354 17.3173 19.4613 18.6914 17.7819 18.6914H14.7284V23.2716L10.1481 18.6914H5.5679ZM33.0494 27.8519C34.7288 27.8519 36.1029 26.4778 36.1029 24.7984V17.1646C36.1029 15.4852 34.7288 14.1111 33.0494 14.1111H23.8889V15.6379C23.8889 18.9967 21.1407 21.7449 17.7819 21.7449V24.7984C17.7819 26.4778 19.156 27.8519 20.8354 27.8519H23.8889V32.4321L28.4691 27.8519H33.0494Z" fill="#1B85F3"/>
</svg>
