<svg width="27" height="27" viewBox="0 0 27 27" fill="none" xmlns="http://www.w3.org/2000/svg">
<path d="M8.69552 12.5402L12.5401 16.3849L19.268 9.65666M2.41357 19.2685C1.09498 16.7373 0.682616 13.8309 1.24506 11.0328C1.80751 8.23467 3.31087 5.71344 5.5051 3.88842C7.69933 2.0634 10.4522 1.04458 13.3058 1.00143C16.1594 0.958275 18.9418 1.89338 21.1902 3.65122L16.3846 5.81195M11.5789 21.1908L5.65835 23.2285C7.98345 25.105 10.904 26.0861 13.8903 25.9941C16.8767 25.902 19.7312 24.7428 21.9363 22.7266C24.1414 20.7104 25.551 17.9708 25.9096 15.0044C26.2683 12.0381 25.5521 9.04143 23.891 6.55782" stroke="white" stroke-width="2"/>
</svg>
