<svg width="22" height="22" viewBox="0 0 22 22" fill="none" xmlns="http://www.w3.org/2000/svg">
<path d="M15.125 6.1875H17.941C18.1113 6.18767 18.2755 6.25105 18.4018 6.36536C18.528 6.47968 18.6074 6.63679 18.6244 6.80625L19.0438 11H17.6605L17.3168 7.5625H15.125V9.625C15.125 9.80734 15.0526 9.9822 14.9237 10.1111C14.7947 10.2401 14.6199 10.3125 14.4375 10.3125C14.2552 10.3125 14.0803 10.2401 13.9514 10.1111C13.8225 9.9822 13.75 9.80734 13.75 9.625V7.5625H8.25003V9.625C8.25003 9.80734 8.17759 9.9822 8.04866 10.1111C7.91973 10.2401 7.74486 10.3125 7.56253 10.3125C7.38019 10.3125 7.20532 10.2401 7.07639 10.1111C6.94746 9.9822 6.87503 9.80734 6.87503 9.625V7.5625H4.6819L3.5819 18.5625H11V19.9375H2.82153C2.7255 19.9374 2.63056 19.9172 2.54282 19.8782C2.45508 19.8392 2.37649 19.7822 2.31211 19.7109C2.24773 19.6397 2.19899 19.5557 2.16903 19.4645C2.13907 19.3733 2.12855 19.2768 2.13815 19.1812L3.37565 6.80625C3.39268 6.63679 3.47201 6.47968 3.59826 6.36536C3.72452 6.25105 3.88871 6.18767 4.05903 6.1875H6.87503V5.70762C6.87503 3.32338 8.71203 1.375 11 1.375C13.288 1.375 15.125 3.32338 15.125 5.70762V6.18887V6.1875ZM13.75 6.1875V5.70762C13.75 4.06588 12.5098 2.75 11 2.75C9.49028 2.75 8.25003 4.06588 8.25003 5.70762V6.18887H13.75V6.1875ZM18.0772 16.5825L16.5 15.0067V19.9375C16.5 20.1198 16.4276 20.2947 16.2987 20.4236C16.1697 20.5526 15.9949 20.625 15.8125 20.625C15.6302 20.625 15.4553 20.5526 15.3264 20.4236C15.1975 20.2947 15.125 20.1198 15.125 19.9375V15.0067L13.5493 16.5825C13.4859 16.6482 13.41 16.7005 13.3261 16.7366C13.2422 16.7726 13.152 16.7916 13.0607 16.7924C12.9695 16.7932 12.8789 16.7758 12.7944 16.7412C12.7099 16.7066 12.6332 16.6556 12.5686 16.591C12.5041 16.5265 12.453 16.4497 12.4185 16.3652C12.3839 16.2807 12.3665 16.1902 12.3673 16.0989C12.3681 16.0076 12.387 15.9174 12.4231 15.8335C12.4591 15.7497 12.5115 15.6738 12.5772 15.6104L15.3272 12.8604C15.4561 12.7315 15.6309 12.6591 15.8132 12.6591C15.9955 12.6591 16.1704 12.7315 16.2993 12.8604L19.0493 15.6104C19.1149 15.6738 19.1673 15.7497 19.2033 15.8335C19.2394 15.9174 19.2583 16.0076 19.2591 16.0989C19.2599 16.1902 19.2425 16.2807 19.208 16.3652C19.1734 16.4497 19.1223 16.5265 19.0578 16.591C18.9932 16.6556 18.9165 16.7066 18.832 16.7412C18.7475 16.7758 18.657 16.7932 18.5657 16.7924C18.4744 16.7916 18.3842 16.7726 18.3003 16.7366C18.2164 16.7005 18.1406 16.6482 18.0772 16.5825Z" fill="white"/>
</svg>
