<svg width="22" height="24" viewBox="0 0 22 24" fill="none" xmlns="http://www.w3.org/2000/svg">
<path d="M15.8125 6.53125V5.21875C15.8125 5.09844 15.7141 5 15.5938 5H5.09375C4.97344 5 4.875 5.09844 4.875 5.21875V6.53125C4.875 6.65156 4.97344 6.75 5.09375 6.75H15.5938C15.7141 6.75 15.8125 6.65156 15.8125 6.53125ZM5.09375 8.9375C4.97344 8.9375 4.875 9.03594 4.875 9.15625V10.4688C4.875 10.5891 4.97344 10.6875 5.09375 10.6875H10.125C10.2453 10.6875 10.3438 10.5891 10.3438 10.4688V9.15625C10.3438 9.03594 10.2453 8.9375 10.125 8.9375H5.09375ZM15.375 12.1094C12.1129 12.1094 9.46875 14.7535 9.46875 18.0156C9.46875 21.2777 12.1129 23.9219 15.375 23.9219C18.6371 23.9219 21.2812 21.2777 21.2812 18.0156C21.2812 14.7535 18.6371 12.1094 15.375 12.1094ZM18.3145 20.9551C17.5297 21.7398 16.4852 22.1719 15.375 22.1719C14.2648 22.1719 13.2203 21.7398 12.4355 20.9551C11.6508 20.1703 11.2188 19.1258 11.2188 18.0156C11.2188 16.9055 11.6508 15.8609 12.4355 15.0762C13.2203 14.2914 14.2648 13.8594 15.375 13.8594C16.4852 13.8594 17.5297 14.2914 18.3145 15.0762C19.0992 15.8609 19.5312 16.9055 19.5312 18.0156C19.5312 19.1258 19.0992 20.1703 18.3145 20.9551ZM17.8086 15.9375H16.5973C16.5262 15.9375 16.4605 15.9703 16.4195 16.0277L14.6832 18.4285L14.0516 17.5562C14.0313 17.5281 14.0046 17.5052 13.9737 17.4895C13.9428 17.4738 13.9085 17.4657 13.8738 17.466H12.668C12.4902 17.466 12.3863 17.6684 12.4902 17.8133L14.5082 20.6051C14.5957 20.7254 14.7734 20.7254 14.8609 20.6051L17.9836 16.2848C18.0902 16.1398 17.9863 15.9375 17.8086 15.9375ZM9.03125 21.2969H2.6875V2.04688H18V11.4531C18 11.5734 18.0984 11.6719 18.2188 11.6719H19.75C19.8703 11.6719 19.9688 11.5734 19.9688 11.4531V0.953125C19.9688 0.469141 19.5777 0.078125 19.0938 0.078125H1.59375C1.10977 0.078125 0.71875 0.469141 0.71875 0.953125V22.3906C0.71875 22.8746 1.10977 23.2656 1.59375 23.2656H9.03125C9.15156 23.2656 9.25 23.1672 9.25 23.0469V21.5156C9.25 21.3953 9.15156 21.2969 9.03125 21.2969Z" fill="white"/>
</svg>
