<svg width="9" height="10" viewBox="0 0 9 10" fill="none" xmlns="http://www.w3.org/2000/svg">
<path d="M4.68885 0.374542C4.39477 0.380463 4.18358 0.4377 4.04345 0.540332L2.12306 1.56862L1.05529 3.02106C0.830294 3.36842 0.990162 4.03948 1.69279 3.60921L2.46253 2.59474C3.4395 1.75217 5.43293 2.13882 4.48753 3.83027C4.02371 4.80921 4.24082 5.28685 4.83885 5.48816L5.11121 4.57237C5.58292 3.51053 6.46319 3.31908 6.42766 2.4625L8.54345 2.61448L8.52372 0.402174L4.68885 0.374542ZM3.62108 2.41513C3.27766 2.40921 2.94016 2.55132 2.69542 2.75658L1.92371 3.77106C2.1349 3.93882 2.34806 3.84803 2.55924 3.64474C2.80793 3.77106 3.00135 3.57566 3.15924 3.18487C3.22437 2.91842 3.32108 2.73092 3.62108 2.41513ZM2.05003 4.30987C2.04214 4.30987 2.03227 4.30987 2.02437 4.31185C1.95924 4.32566 1.88227 4.39474 1.83095 4.55263C1.77766 4.71053 1.76582 4.93553 1.81319 5.17632C1.86056 5.41513 1.95924 5.61842 2.06977 5.74474C2.17635 5.86908 2.27503 5.90461 2.34016 5.89079C2.40727 5.87895 2.48227 5.8079 2.53358 5.65198C2.58687 5.49408 2.60069 5.26711 2.55332 5.02829C2.50398 4.7875 2.40529 4.58421 2.29674 4.45987C2.202 4.34935 2.11516 4.30987 2.05003 4.30987ZM3.68029 6.41777C3.52437 6.41974 3.32898 6.46908 3.13753 6.56184C2.91845 6.6704 2.74674 6.8204 2.65398 6.95856C2.56121 7.09474 2.55332 7.19737 2.58293 7.25856C2.61253 7.31777 2.69937 7.375 2.86516 7.3829C3.03095 7.39277 3.25398 7.34737 3.47306 7.23882C3.69214 7.13027 3.86385 6.98224 3.95661 6.84408C4.04937 6.7079 4.05727 6.60329 4.02766 6.54408C3.99806 6.4829 3.91121 6.42763 3.74543 6.41974C3.72371 6.41777 3.70398 6.41777 3.68029 6.41777ZM1.75398 8.30461C1.66121 8.30658 1.57635 8.3204 1.50135 8.34211C1.33358 8.39145 1.23687 8.48027 1.20529 8.58487C1.17174 8.69145 1.20529 8.81777 1.31779 8.95395C1.43227 9.08816 1.62371 9.21645 1.86056 9.2875C2.09543 9.35856 2.32437 9.35658 2.49411 9.30527C2.66385 9.25592 2.76056 9.16711 2.79214 9.0625C2.82371 8.95592 2.79214 8.82961 2.67766 8.69342C2.56516 8.55921 2.37371 8.43092 2.13687 8.35987C2.00266 8.3204 1.8724 8.30263 1.75398 8.30461Z" fill="white"/>
</svg>
