<svg width="20" height="14" viewBox="0 0 20 14" fill="none" xmlns="http://www.w3.org/2000/svg">
<path d="M11.375 5.625C11.375 6.35435 11.0853 7.05382 10.5695 7.56954C10.0538 8.08527 9.35435 8.375 8.625 8.375C7.89565 8.375 7.19618 8.08527 6.68046 7.56954C6.16473 7.05382 5.875 6.35435 5.875 5.625C5.875 4.89565 6.16473 4.19618 6.68046 3.68046C7.19618 3.16473 7.89565 2.875 8.625 2.875C9.35435 2.875 10.0538 3.16473 10.5695 3.68046C11.0853 4.19618 11.375 4.89565 11.375 5.625ZM10 5.625C10 5.26033 9.85513 4.91059 9.59727 4.65273C9.33941 4.39487 8.98967 4.25 8.625 4.25C8.26033 4.25 7.91059 4.39487 7.65273 4.65273C7.39487 4.91059 7.25 5.26033 7.25 5.625C7.25 5.98967 7.39487 6.33941 7.65273 6.59727C7.91059 6.85513 8.26033 7 8.625 7C8.98967 7 9.33941 6.85513 9.59727 6.59727C9.85513 6.33941 10 5.98967 10 5.625ZM0.375 1.84375C0.375 0.895 1.145 0.125 2.09375 0.125H15.1562C16.105 0.125 16.875 0.895 16.875 1.84375V9.40625C16.875 10.355 16.105 11.125 15.1562 11.125H2.09375C1.145 11.125 0.375 10.355 0.375 9.40625V1.84375ZM2.09375 1.5C2.00258 1.5 1.91515 1.53622 1.85068 1.60068C1.78622 1.66515 1.75 1.75258 1.75 1.84375V2.875H2.4375C2.61984 2.875 2.7947 2.80257 2.92364 2.67364C3.05257 2.5447 3.125 2.36984 3.125 2.1875V1.5H2.09375ZM1.75 9.40625C1.75 9.596 1.904 9.75 2.09375 9.75H3.125V9.0625C3.125 8.88016 3.05257 8.70529 2.92364 8.57636C2.7947 8.44743 2.61984 8.375 2.4375 8.375H1.75V9.40625ZM4.5 9.0625V9.75H12.75V9.0625C12.75 8.51549 12.9673 7.99089 13.3541 7.60409C13.7409 7.2173 14.2655 7 14.8125 7H15.5V4.25H14.8125C14.2655 4.25 13.7409 4.0327 13.3541 3.64591C12.9673 3.25911 12.75 2.73451 12.75 2.1875V1.5H4.5V2.1875C4.5 2.73451 4.2827 3.25911 3.89591 3.64591C3.50911 4.0327 2.98451 4.25 2.4375 4.25H1.75V7H2.4375C2.98451 7 3.50911 7.2173 3.89591 7.60409C4.2827 7.99089 4.5 8.51549 4.5 9.0625ZM14.125 9.75H15.1562C15.2474 9.75 15.3349 9.71378 15.3993 9.64932C15.4638 9.58485 15.5 9.49742 15.5 9.40625V8.375H14.8125C14.6302 8.375 14.4553 8.44743 14.3264 8.57636C14.1974 8.70529 14.125 8.88016 14.125 9.0625V9.75ZM15.5 2.875V1.84375C15.5 1.75258 15.4638 1.66515 15.3993 1.60068C15.3349 1.53622 15.2474 1.5 15.1562 1.5H14.125V2.1875C14.125 2.36984 14.1974 2.5447 14.3264 2.67364C14.4553 2.80257 14.6302 2.875 14.8125 2.875H15.5ZM5.1875 13.875C4.75193 13.8752 4.32748 13.7374 3.975 13.4815C3.62253 13.2256 3.36011 12.8647 3.22537 12.4505C3.41604 12.4835 3.61175 12.5 3.8125 12.5H15.1562C15.9768 12.5 16.7637 12.1741 17.3439 11.5939C17.9241 11.0137 18.25 10.2268 18.25 9.40625V2.99188C18.6523 3.13411 19.0006 3.39761 19.2468 3.74608C19.4931 4.09454 19.6252 4.5108 19.625 4.9375V9.40625C19.625 9.99309 19.5094 10.5742 19.2848 11.1164C19.0603 11.6585 18.7311 12.1512 18.3161 12.5661C17.9012 12.9811 17.4085 13.3103 16.8664 13.5348C16.3242 13.7594 15.7431 13.875 15.1562 13.875H5.1875Z" fill="#1B85F3"/>
</svg>
