<svg width="20" height="20" viewBox="0 0 20 20" fill="none" xmlns="http://www.w3.org/2000/svg">
<path fill-rule="evenodd" clip-rule="evenodd" d="M8.50883 1.42658C8.56491 1.67429 8.52033 1.93413 8.38488 2.14898C8.24943 2.36383 8.03421 2.5161 7.78653 2.57231C7.59855 2.61508 7.41225 2.66493 7.22803 2.72175C7.10782 2.75886 6.98149 2.77194 6.85623 2.76022C6.73098 2.74851 6.60925 2.71224 6.49801 2.65349C6.38678 2.59473 6.2882 2.51464 6.20791 2.41779C6.12762 2.32094 6.0672 2.20922 6.03009 2.08901C5.99298 1.96881 5.97991 1.84247 5.99162 1.71722C6.00333 1.59196 6.0396 1.47024 6.09836 1.359C6.15711 1.24776 6.2372 1.14918 6.33405 1.0689C6.43091 0.98861 6.54262 0.928186 6.66283 0.891074C6.89274 0.819546 7.12585 0.757277 7.36214 0.70427C7.48487 0.676361 7.61189 0.672909 7.73594 0.694109C7.86 0.715309 7.97867 0.760747 8.08516 0.827826C8.19165 0.894905 8.28387 0.98231 8.35657 1.08505C8.42927 1.18778 8.48101 1.30384 8.50883 1.42658ZM10.4727 1.42658C10.5289 1.1789 10.6812 0.963673 10.896 0.828225C11.1108 0.692777 11.3707 0.648191 11.6184 0.70427C15.8852 1.67182 19.0714 5.48645 19.0714 10.0464C19.0714 15.3372 14.7816 19.6261 9.49171 19.6261C4.93082 19.6261 1.11619 16.4408 0.148637 12.174C0.0989741 11.9288 0.147249 11.6738 0.283137 11.4637C0.419025 11.2536 0.631738 11.105 0.875783 11.0496C1.11983 10.9943 1.37583 11.0367 1.58904 11.1677C1.80225 11.2987 1.95574 11.5079 2.01668 11.7506C2.32152 13.0858 2.97858 14.3149 3.91949 15.31C4.86041 16.3052 6.0508 17.03 7.36682 17.4091C8.68284 17.7882 10.0764 17.8077 11.4025 17.4656C12.7286 17.1235 13.9389 16.4323 14.9073 15.4639C15.8757 14.4954 16.5669 13.2852 16.909 11.9591C17.2511 10.633 17.2316 9.23943 16.8525 7.92341C16.4734 6.60739 15.7486 5.417 14.7534 4.47608C13.7583 3.53517 12.5292 2.87811 11.194 2.57327C10.9463 2.51685 10.7312 2.36435 10.5959 2.14931C10.4606 1.93427 10.4163 1.6743 10.4727 1.42658ZM4.33113 3.07237C4.4168 3.16461 4.48345 3.27284 4.52727 3.39086C4.57109 3.50888 4.59122 3.63438 4.5865 3.76018C4.58179 3.88598 4.55232 4.00962 4.49979 4.12403C4.44726 4.23844 4.3727 4.34137 4.28036 4.42694C4.13858 4.55786 4.00223 4.69389 3.87131 4.83503C3.69728 5.01611 3.45911 5.1216 3.20807 5.1288C2.95703 5.136 2.7132 5.04433 2.52908 4.87353C2.34497 4.70273 2.23529 4.46645 2.22366 4.21558C2.21204 3.9647 2.29939 3.7193 2.46692 3.5322C2.62978 3.35593 2.79966 3.18573 2.97656 3.0216C3.0688 2.93592 3.17703 2.86927 3.29505 2.82545C3.41307 2.78164 3.53857 2.76151 3.66437 2.76622C3.79017 2.77094 3.91381 2.80041 4.02822 2.85294C4.14263 2.90547 4.24556 2.98003 4.33113 3.07237ZM9.49075 4.29857C9.74482 4.29857 9.98849 4.3995 10.1681 4.57915C10.3478 4.75881 10.4487 5.00247 10.4487 5.25654V9.64979L13.0419 12.243C13.2164 12.4237 13.313 12.6657 13.3108 12.9168C13.3086 13.168 13.2079 13.4083 13.0303 13.5859C12.8527 13.7635 12.6124 13.8643 12.3612 13.8665C12.11 13.8686 11.8681 13.7721 11.6874 13.5976L8.81347 10.7237C8.6338 10.5441 8.53284 10.3004 8.53278 10.0464V5.25654C8.53278 5.00247 8.63371 4.75881 8.81337 4.57915C8.99302 4.3995 9.23668 4.29857 9.49075 4.29857ZM1.5329 6.5862C1.77564 6.66106 1.97872 6.82926 2.09746 7.05381C2.21621 7.27837 2.24091 7.5409 2.16612 7.78366C2.1093 7.96788 2.05945 8.15418 2.01668 8.34216C1.95574 8.58486 1.80225 8.79408 1.58904 8.92508C1.37583 9.05607 1.11983 9.09844 0.875783 9.04313C0.631738 8.98781 0.419025 8.8392 0.283137 8.62907C0.147249 8.41895 0.0989741 8.16399 0.148637 7.91874C0.202283 7.68244 0.264551 7.44933 0.335441 7.21942C0.410296 6.97668 0.578497 6.7736 0.803055 6.65486C1.02761 6.53611 1.29014 6.51142 1.5329 6.5862Z" fill="white"/>
</svg>
