<svg width="16" height="20" viewBox="0 0 16 20" fill="none" xmlns="http://www.w3.org/2000/svg">
<path d="M0.666687 11.8333H2.8621C3.1316 11.8333 3.39744 11.8938 3.63852 12.0112L5.51035 12.9168C5.75144 13.0332 6.01727 13.0937 6.28769 13.0937H7.24285C8.16685 13.0937 8.91669 13.8188 8.91669 14.7135C8.91669 14.7502 8.89194 14.7813 8.85619 14.7914L6.52694 15.4358C6.10899 15.5513 5.66331 15.5109 5.27294 15.3222L3.27185 14.3542" stroke="white" stroke-linecap="round" stroke-linejoin="round"/>
<path d="M8.91669 14.125L13.1269 12.8316C13.4935 12.7191 13.8862 12.7253 14.249 12.8492C14.6118 12.9732 14.9262 13.2086 15.1473 13.5218C15.4855 13.9893 15.348 14.6603 14.8549 14.9445L7.9661 18.9201C7.7507 19.0447 7.51218 19.1242 7.26507 19.1536C7.01796 19.1831 6.76744 19.162 6.52877 19.0915L0.666687 17.3517M8.91669 3.58333H10.75M10.75 10H8.91669C7.18785 10 6.32435 9.99999 5.78719 9.46283C5.25002 8.92566 5.25002 8.06216 5.25002 6.33333V4.49999C5.25002 2.77116 5.25002 1.90766 5.78719 1.37049C6.32435 0.833328 7.18785 0.833328 8.91669 0.833328H10.75C12.4789 0.833328 13.3424 0.833328 13.8795 1.37049C14.4167 1.90766 14.4167 2.77116 14.4167 4.49999V6.33333C14.4167 8.06216 14.4167 8.92566 13.8795 9.46283C13.3424 9.99999 12.4789 10 10.75 10Z" stroke="white" stroke-linecap="round" stroke-linejoin="round"/>
</svg>
