<svg width="22" height="22" viewBox="0 0 22 22" fill="none" xmlns="http://www.w3.org/2000/svg">
<path d="M15.5833 18.3333C16.5959 18.3333 17.4167 17.5125 17.4167 16.5C17.4167 15.4875 16.5959 14.6667 15.5833 14.6667C14.5708 14.6667 13.75 15.4875 13.75 16.5C13.75 17.5125 14.5708 18.3333 15.5833 18.3333Z" stroke="white" stroke-width="1.5" stroke-linecap="round" stroke-linejoin="round"/>
<path d="M6.41665 18.3333C7.42917 18.3333 8.24998 17.5125 8.24998 16.5C8.24998 15.4875 7.42917 14.6667 6.41665 14.6667C5.40412 14.6667 4.58331 15.4875 4.58331 16.5C4.58331 17.5125 5.40412 18.3333 6.41665 18.3333Z" stroke="white" stroke-width="1.5" stroke-linecap="round" stroke-linejoin="round"/>
<path d="M4.58331 16.4743C3.57773 16.4248 2.95165 16.2754 2.50431 15.829C2.05698 15.3826 1.90848 14.7556 1.85898 13.75M8.24998 16.5H13.75M17.4166 16.4743C18.4222 16.4248 19.0483 16.2754 19.4956 15.829C20.1666 15.1571 20.1666 14.0773 20.1666 11.9167V10.0833H15.8583C15.1754 10.0833 14.8344 10.0833 14.5585 9.99351C14.2833 9.9041 14.0333 9.75085 13.8287 9.54628C13.6241 9.34172 13.4709 9.09164 13.3815 8.8165C13.2916 8.54059 13.2916 8.19959 13.2916 7.51667C13.2916 6.49275 13.2916 5.98125 13.1569 5.56692C13.0228 5.15422 12.7929 4.77911 12.4861 4.47226C12.1792 4.16541 11.8041 3.93553 11.3914 3.80142C10.9771 3.66667 10.4656 3.66667 9.44165 3.66667H1.83331M1.83331 7.33334H7.33331M1.83331 10.0833H5.49998" stroke="white" stroke-width="1.5" stroke-linecap="round" stroke-linejoin="round"/>
<path d="M13.2916 5.5H14.9609C16.2955 5.5 16.962 5.5 17.5046 5.8245C18.0482 6.14808 18.3645 6.73567 18.997 7.91083L20.1666 10.0833" stroke="white" stroke-width="1.5" stroke-linecap="round" stroke-linejoin="round"/>
</svg>
