<svg width="24" height="24" viewBox="0 0 24 24" fill="none" xmlns="http://www.w3.org/2000/svg">
<path d="M12 8V12L13.5 13.5M19.545 16.453C21.182 17.337 22 17.78 22 18.5C22 19.22 21.182 19.663 19.545 20.547L18.431 21.148C17.174 21.827 16.546 22.166 16.244 21.92C15.504 21.315 16.657 19.756 16.94 19.204C17.228 18.644 17.222 18.346 16.94 17.796C16.657 17.244 15.504 15.685 16.244 15.08C16.546 14.834 17.174 15.173 18.431 15.852L19.545 16.453Z" stroke="#1B85F3" stroke-width="1.5" stroke-linecap="round" stroke-linejoin="round"/>
<path d="M13.026 21.948C12.6887 21.982 12.3467 21.9993 12 22C6.477 22 2 17.523 2 12C2 6.477 6.477 2 12 2C17.523 2 22 6.477 22 12C21.9987 12.6867 21.932 13.3533 21.8 14" stroke="#1B85F3" stroke-width="1.5" stroke-linecap="round" stroke-linejoin="round"/>
</svg>
